<?xml version="1.0" encoding="UTF-8" standalone="no"?>
<svg id="svg4301" xmlns:rdf="http://www.w3.org/1999/02/22-rdf-syntax-ns#" xmlns="http://www.w3.org/2000/svg" height="2677" viewBox="0 0 2567 2677" width="2567" version="1.1" xmlns:cc="http://creativecommons.org/ns#" xmlns:dc="http://purl.org/dc/elements/1.1/">
<g id="g4893">
<g>
<path id="path4891" fill="#78ffe9" d="m1968 2655.4c-0.046-19.736-0.1976-21.443-2.2998-26-3.3639-7.2916-3.4817-58.236-0.1512-65.377 3.0179-6.4706 10.074-13.816 18.252-19 8.2214-5.2119 8.1086-5.0023 4.0003-7.4292-20.264-11.97-27.491-26.679-29.516-60.071-2.8069-46.277 6.3038-60.846 49.61-79.334 9.4074-4.016 9.4331-4.0366 6.5-5.2297-49.135-19.986-63.116-45.527-60.28-110.12 0.9857-22.452 27.964-49.03 57.221-56.373 4.5447-1.1406 3.7662-2.0157-4.7345-5.3224-39.652-15.424-52.226-34.178-55.332-82.528-2.89-44.984 4.3609-57.598 44.074-76.673l12.106-5.8151-3.5-1.2155c-33.494-11.632-52.072-34.768-54.913-68.384-5.0615-59.884 1.9608-73.27 49.187-93.758l9.7739-4.2402-3.2739-1.393c-46.717-19.877-56.894-34.322-60.244-85.508-2.9155-44.553 15.429-70.764 56.792-81.145 4.2675-1.0711 3.9915-2.0686-1.0918-3.9456-46.753-17.264-60.15-41.022-60.221-106.79-0.026-24.076 19.884-45.048 55.288-58.239 5.6107-2.0904 5.4619-2.3245-3.9672-6.2407-30.236-12.558-48.104-32.147-51.755-56.739-9.3587-63.045 1.9861-86.545 50.926-105.49 8.4727-3.2798 8.4878-3.2163-1.7469-7.3948-43.609-17.804-54.677-38.008-55.139-100.66l-0.1145-15.54 3.8517-7.8047c6.8794-13.94 18.834-24.046 41.013-34.669l12.077-5.7847-4.4707-1.7642c-43.292-17.083-54.891-37.923-55.342-99.429l-0.1285-17.533 3.6838-7.4728c7.3429-14.895 25.972-29.235 50.568-38.925l3.2523-1.2812-9.4742-4.2668c-38.921-17.529-48.886-34.325-50.165-84.559l-0.6765-26.571 2.5041-5.4294c11.496-24.925 64.046-55.553 150.13-87.499l12.822-4.7582-7.4554-4.8044c-4.1004-2.6424-14.595-8.9111-23.322-13.931-94.6-54.89-128-98.94-127.7-169.35 0.3365-84.36 17.232-109.19 122.97-180.74 59.301-40.126 59-39.835 51.758-50.055-7.5495-10.653-25.97-28.344-51.559-49.516-81.161-67.152-117.54-108.88-134.23-153.95-5.3791-14.53-10.19-37.527-16.68-79.733-5.1941-33.781-0.5017-67.859 14.463-105.03 10.227-25.407 9.2002-23.767 15.362-24.537 5.3644-0.67024 40.284 0.39367 40.284 1.2273 0 0.94024-3.7412 7.5661-16.267 28.809-29.762 50.475-40.964 79.125-44.878 114.78l-1.1798 10.746 6.0141 12.254c20.031 40.815 56.506 79.378 126.31 133.54 73.14 56.751 76.151 61.629 76.374 123.71l0.1258 35-2.5 4.9376c-5.8835 11.62-20.528 23.331-59.885 47.887-79.364 49.518-106.38 75.186-120.49 114.49l-2.6274 7.3164 2.5064 7.4664c13.867 41.31 54.927 80.595 129.5 123.9 47.121 27.365 47.568 28.05 46.162 70.676-1.3427 40.713 1.1765 38.036-53.662 57.034-76.954 26.66-105.09 44.147-115.62 71.858l-1.9861 5.2272 3.2799 3.384c8.1923 8.4523 26.228 18.646 43.831 24.773 26.53 9.2346 46.404 12.462 101.49 16.483 16.869 1.2312 21.305 2.3137 21.957 5.3577 0.4771 2.2269 2.5432 39.746 2.5432 46.182 0 5.4924-1.4769 5.9162-41.739 11.977-84.736 12.755-118.12 23.668-134.85 44.088l-3.5746 4.3623 3.0093 4.3739c17.867 25.969 65.76 44.018 129.15 48.674 52.362 3.8458 48.451 2.84 49.337 12.688 4.6001 51.111 6.3625 48.071-30.837 53.203-8.25 1.1381-23.55 3.2384-34 4.6674-57.949 7.9243-89.088 18.22-106.32 35.156-8.6496 8.4994-8.7265 7.838 2.2293 19.171 24.128 24.958 65.553 37.89 136.59 42.64 27 1.8054 30.464 2.2678 33.124 4.4218 2.29 1.8543 6.49 49.161 4.7766 53.801-1.0998 2.9779-2.7569 3.3369-42.9 9.2937-82.349 12.22-118.16 24.002-134.09 44.124-3.9657 5.0071-3.4552 6.2783 6.593 16.418 24.285 24.507 66.126 37.25 137.93 42.006 25.722 1.7041 31.312 2.7062 32.623 5.8484 0.7344 1.7596 3.9716 42.151 3.9542 49.337-0.01 4.2544-3.6756 5.2614-37.713 10.362-88.574 13.273-118.99 22.772-137.74 43.023-6.6188 7.1492-6.69 6.8217 3.8505 17.725 24.16 24.991 65.571 37.799 137.94 42.66 36.377 2.4439 33.388 0.2687 35.2 25.618 2.8667 40.111 11.137 33.888-59.044 44.427-70.776 10.629-126.41 33.171-118.48 48.002 15.106 28.225 66.463 46.394 146.9 51.97 29.959 2.0769 33.075 2.916 33.075 8.9072 0 1.1215 0.7178 12.074 1.5952 24.34 2.1248 29.704 5.1578 26.678-32.326 32.247-93.093 13.83-127.9 24.915-143.86 45.81l-3.3703 4.414 3.1825 4.4315c20.261 28.212 67.891 44.554 143.78 49.33 37.837 2.381 33.798-1.6228 36.124 35.817 1.6114 25.941 4.3942 24.153-48.564 31.212-100.9 13.45-144.37 33.126-123.12 55.723 24.345 25.879 65.27 38.802 138.51 43.739 33.28 2.2435 33.665 2.3536 34.488 9.862 1.7463 15.918 3.3321 47.201 2.474 48.804-1.3496 2.5217-4.2931 3.1302-42.92 8.8719-83.957 12.48-120.42 24.658-134.45 44.907l-2.8057 4.0487 4.0552 5.3711c20.866 27.636 66.156 42.867 143.2 48.157 24.806 1.7032 30.483 2.5175 32.554 4.6691 1.115 1.1587 4.4465 38.3 4.4465 49.572 0 5.9042 0.609 5.7388-47 12.764-75.339 11.118-109.69 21.974-127.29 40.229l-3.7943 3.9349 3.8883 4.7054c12.183 14.743 34.738 27.976 64.314 37.733l12.833 4.2335 17.346-1.8112c34.08-3.5584 74.663-0.5438 78.942 5.8639 0.4041 0.6052 0.7416 10.922 0.75 22.927l0.015 21.827-2.8247 2.8248c-6.3888 6.3887-42.145 4.3584-78.947-4.4829l-10.272-2.4677-10.334 1.9944c-27.766 5.3582-53.231 15.304-65.122 25.433l-3 2.5557 3.5 3.0594c1.925 1.6827 6.2086 4.5859 9.5191 6.4514l6.0191 3.392 9.4809-2.9832c37.414-11.772 91.245-11.363 123.35 0.9384 12.157 4.6585 11.634 3.3254 11.634 29.66v22.625l-2.7623 2.7623c-14.286 14.286-84.762 12.616-128.59-3.0461-6.1324-2.1916-12.098-4.2241-13.257-4.5166-5.1037-1.2884-20.407 10.009-24.226 17.884l-2.0669 4.2623-0.05-21.123z"/>
<path id="path4889" fill="#7878ff" d="m134.5 2492.1c-54.078-20.027-72.082-36.198-71.94-64.616 0.17033-34.279 25.993-70.169 64.368-89.464l8.4121-4.2295-9.9201-3.7554c-63.601-24-79.319-51-93.502-160.5-7.015-54.1 21.525-107.3 98.702-184 81.36-80.85 108.01-117 119.43-162l2.2844-9-3.8396-9c-12.179-28.547-25.538-47.302-71.942-101-133.47-154.5-138.82-164.5-138.15-258.1l0.31736-44.104 2.4996-5.3957c5.8261-12.576 15.413-23.114 45.28-49.773 73.993-66.043 111.4-113.05 126.93-159.49 5.2214-15.615 5.2344-15.9 1.2659-27.752-15.25-45.5-43.11-79.9-112.7-139-59.712-50.64-74.39-67.6-77.847-89.9-0.555-3.58-3.106-18.88-5.67-34-7.858-46.36-6.039-50.19 45.517-95.97 76.14-67.59 116.54-120.5 128.55-168.3l1.6864-6.7134-3.1876-9.7598c-13.95-42.72-43.9-80.75-104.05-132.14-94.376-80.63-91.178-74.06-80.406-165.12l2.5433-21.5 3.7928-5c2.086-2.75 10.195-12.2 18.019-21 71.059-79.919 106.46-157.71 112.87-248 0.7684-10.833 0.79296-10.636 1.6206 13 3.9753 113.54-16.998 174.57-98.454 286.5-10.607 14.575-19.454 27.175-19.662 28-0.45813 1.8238 24.779 27.665 62.593 64.091 68.654 66.134 94.347 103.59 104.06 151.7 4.8179 23.861 6.2857 107.24 2.193 124.57-12.689 53.74-41.314 96.306-111.56 165.9l-37.11 36.76 55.615 55.238c63.526 63.095 74.216 75.126 90.533 101.88 23.773 38.986 29.334 68.257 29.35 154.51 0.011 58.452-38.773 125.32-113.57 195.8-32.597 30.718-55.594 55.364-57.041 61.13-3.0191 12.029 44.856 80.054 118.37 168.18 75.122 90.062 82.677 105.11 89.771 178.75 9.4935 98.545-5.2006 129.26-115.06 240.49-66.679 67.512-88.635 101.27-96.892 149l-1.4707 8.5 3.1968 5.4863c26.197 44.9 142.13 81.4 225.2 70.7l6-0.7682 3.367 27.268c1.8518 14.998 3.5904 28.731 3.8635 30.518 0.4257 2.7866 0.19909 3.25-1.5894 3.25-17.998 0-122.22 39.943-151.14 57.925-20.316 12.631-22.534 15.455-16.921 21.545 4.5162 4.8994 6.3816 5.7076 25.331 10.974 39.303 10.924 43.756 25.32 16.326 52.781-11.358 11.37-9.6171 11.046-26.236 4.8913z"/>
<path id="path4887" fill="#5eff5e" d="m1656.7 2307c-0.3148-0.825-1.3568-4.1216-2.3154-7.3257-13.226-44.204-109.87-95.662-180.42-96.068l-18.5-0.1065-1.1492-23c-0.6321-12.65-1.1946-25.138-1.25-27.75l-0.2-4.8h11.401c39.401 0 105.98-21.605 143.91-46.699 18.902-12.505 40.321-36.319 37.5-41.692-17.333-33.006-122.46-69.087-184.76-63.413-5.7485 0.5235-11.856 0.6885-13.572 0.3665l-3.1199-0.5853-1.2917-28.109c-1.5283-33.26-3.3743-29.832 16.075-29.852 16.348-0.017 23.176-1.0546 47.36-7.196 60.871-15.458 107.81-41.411 126.84-70.14l3.8439-5.8008-2.8439-4.1831c-23.74-34.921-91.789-60.406-179.59-67.261l-7.75-0.605v-10.165c0-5.5906 0.2972-18.586 0.6569-28.88l0.6541-18.715 10.663 0.01c62.292 0.057 153.25-40.989 175.9-79.375l3.3785-5.7262-2.7789-4.0099c-23.647-34.122-113.72-64.308-183.13-61.373l-16.156 0.6831-0.5764-6.3894c-4.7297-52.424-4.7476-52.366 16.187-52.48 51.51-0.2797 135.57-34.146 164.15-66.132 14.178-15.867 14.263-16.885 2.4325-29.268-29.74-31.129-95.119-54.052-166.89-58.515-22.774-1.4162-22.314-0.6447-23.15-38.81l-0.6726-30.711 2.2409-2.3854c3.0064-3.2001 9.7573-6.1202 35.691-15.438 87.232-31.341 137.51-65.64 159.07-108.52l4.4587-8.8668-4.0661-8.474c-17.989-37.496-44.616-57.297-138.07-102.67-59.852-29.062-58.574-27.272-57.054-79.907 2.1369-74.04 5.6604-80.964 72.054-141.58 86.635-79.098 126.81-133.07 142.53-191.47l2.3787-8.8408-1.9247-10.659c-6.6699-36.938-21.452-71.877-45.634-107.86-9.4798-14.106-12.673-18.332-49.344-65.299-76.622-98.134-82.699-108.31-85.008-142.28-4.2574-62.641 13.227-102.63 77.808-177.94 37.007-43.157 58.105-70.286 78.382-100.78 6.0335-9.075 11.654-17.343 12.49-18.374 1.3876-1.7107 34.428-1.7614 36.214-0.055475 0.9143 0.873-7.9528 22.225-15.544 37.429-16.72 33.488-35.15 59.459-74.749 105.33-57.292 66.366-75.834 91.396-93.096 125.67l-3.42 6.7911 6.4352 10.15c11.146 17.579 23.034 33.433 54.172 72.247 103.09 128.51 116.25 166.48 104.23 300.81-6.4266 71.802-44.548 133.93-136.53 222.51-43.892 42.268-54.222 53.447-65.567 70.96-8.7942 13.575-9.1642 13.068 19.559 26.82 160.41 76.803 172.82 90.968 168.8 192.71-2.422 61.216-30.297 96.015-107.98 134.81-9.9302 4.9587-12.856 6.8281-11.5 7.3477 1.0003 0.3833 7.6688 2.3303 14.819 4.3268 82.312 22.983 106.47 50.542 106.84 121.9l0.162 31.121-2.6228 6.7416c-7.9431 20.416-29.766 41.856-57.829 56.813l-6.2893 3.3521 3.3706 1.4624c58.691 25.464 70.261 41.14 73.471 99.543 3.0892 56.204-10.128 78.161-64.29 106.8l-10.189 5.3879 11.689 5.8097c48.553 24.132 59.427 40.972 61.4 95.09 2.0099 55.144-13.515 81.569-61.46 104.62-6.1472 2.9547-6.2811 2.7498 4.7221 7.2299 36.614 14.908 60.174 38.594 64.482 64.828 1.6996 10.352 3.8679 57.608 2.9973 65.326-3.0616 27.141-23.882 50.858-63.7 72.558l-12.483 6.8031 8.1572 4.1013c38.02 19.116 65.466 43.649 73.086 65.33 2.6439 7.5225 2.5464 15.1-0.521 40.461-2.9199 24.142-2.9538 24.342-3.7537 22.246z"/>
<path id="path4885" fill="#ffff56" d="m1206.7 2234.8c-1.2631-4.508-10.162-12.302-19.051-16.684l-8.1922-4.039-8.3318 2.9656c-49.165 17.5-139.53 21.15-157.12 6.3455l-3.0474-2.5642v-23.966-23.966l5.4775-2.5077c32.683-14.963 116.61-15.964 156.56-1.8684 4.1157 1.4521 16.501-3.4653 23.962-9.514l2.5-2.0266-2.4127-2.0284c-11.265-9.4709-43.62-20.661-75.161-25.994l-12.991-2.1968-10.218 2.1016c-47.746 9.8207-88.266 11.419-94.645 3.7326-1.6412-1.9775-1.5644-45.29 0.084-47.276 5.675-6.838 57.304-8.9978 99.372-4.1571l10.028 1.1539 14.909-4.1976c55.729-15.69 88.731-39.122 74.767-53.085-28.597-28.597-105.4-53.463-182.98-59.24l-16.25-1.2101 0.0007-22.538 0.0007-22.538 18.249-0.075c74.694-0.3081 158.47-23.055 185.89-50.47l4.9956-4.9956-3.2601-4.1162c-22.819-28.811-98.682-56.319-182.88-66.31-20.502-2.433-18.315-0.7785-17.617-13.328 0.3273-5.8874 0.8752-16.371 1.2175-23.298l0.6224-12.593 5.1387 0.9535c7.3519 1.3642 54.568 0.217 70.639-1.7163 62.749-7.5486 106.13-22.683 128.16-44.707l5.9236-5.9236-1.931-2.7103c-22.63-31.76-99.145-59.121-185.15-66.205-6.875-0.5663-14.018-1.3096-15.873-1.6519l-3.3733-0.6222 0.6146-5.1155c0.3381-2.8136 0.6186-12.653 0.6234-21.866l0.01-16.75h16.25c94.06-0.02 210.44-44.49 184.45-70.48-28.64-28.64-97.387-48.974-181.2-53.595-23.852-1.3151-20.409 2.5501-21.175-23.77l-0.644-22.151 9.9093-0.0008c73.328-0.01 176.87-35.593 193.39-66.469 12.1-22.3-107.8-57.5-196-57.5h-11.651l-0.5913-6.25c-0.3252-3.4375-0.8432-11.875-1.1512-18.75-0.3079-6.875-0.7789-14.3-1.0466-16.5l-0.4867-4 11.271-0.2529c65.66-1.4731 155.45-31.841 184.17-62.29l6.7664-7.1728-2.8339-3.0272c-18.733-20.01-63.943-32.528-159.83-44.256-51.948-6.3531-47.146-3.0298-49.457-34.222-2.3312-31.462-6.6966-26.687 38.306-41.903 89.944-30.412 140.07-61.63 158.97-99.015l2.5987-5.1384-3.1517-4.8616c-20.3-31.24-66.1-52.32-163.8-75.37-53.4-12.6-51.3-9.88-54.55-70.53-1.2366-23.056 3.4821-28.054 53.572-56.747 80.607-46.174 120.47-80.238 139.62-119.32 7.4988-15.303 7.7342-17.938 2.5317-28.333-19.798-39.555-57.646-68.107-140.67-106.12-61.833-28.308-74.54-38.091-76.491-58.891-7.9868-85.143-4.2387-93.037 71.991-151.62 87.664-67.373 121.48-99.833 141.47-135.81 8.5077-15.309-2.0736-48.825-34.421-109.03-6.732-12.529-12.021-22.998-11.753-23.266 0.7159-0.71591 39.422-0.97447 40.133-0.2681 1.0993 1.093 8.495 22.2 12.053 34.399 6.7147 23.022 9.0675 46.137 6.5651 64.5-1.0523 7.7217-6.4327 40.033-8.6299 51.825-8.9585 48.08-43.654 89.868-145.42 175.15-35.137 29.445-62 57.008-62 63.615 0 4.1048 12.862 11.638 63 36.9 131.83 66.424 150.48 88.767 153.6 184.07 2.0242 61.778-37.335 108.54-142.6 169.43-10.725 6.2037-23.039 13.544-27.364 16.312l-7.8646 5.0322 21.666 6.2892c150.03 43.551 173.03 60.619 178.59 132.53 4.6423 59.975-20.212 90.747-102.55 126.96-16.622 7.3111-17.097 6.327 5.0156 10.38 71.421 13.089 109.16 37.4 112.5 72.476 5.7517 60.366-5.5865 78.303-64.819 102.54-3.3793 1.383-5.0712 2.5263-4.1786 2.8236 0.825 0.2748 4.65 1.5044 8.5 2.7325 46.394 14.798 67.409 34.392 69.57 64.864 4.3873 61.876-5.4523 77.451-63.894 101.14-6.2964 2.5522-7.88 3.5527-6.5 4.107 1.0035 0.4031 7.6745 3.0169 14.824 5.8084 29.381 11.471 48.188 25.808 56.413 43.004l3.5873 7.5v31.519 31.519l-3.2316 6.5666c-8.554 17.382-31.529 33.729-63.172 44.946-7.2309 2.5634-8.9638 3.5149-7.5 4.1182 67.041 27.628 78.893 46.17 71.416 111.73-2.8188 24.715-23.626 42.546-65.867 56.445l-13.142 4.3243 8.7487 3.7574c56.766 24.38 67.613 41.739 63.323 101.34-1.9144 26.594-22.422 45.641-65.973 61.272l-10.601 3.8047 4 1.6663c58.135 24.217 70.541 38.634 70.467 81.882-0.065 37.799-6.1539 50.879-30.755 66.063-7.6627 4.7297-7.8237 4.0625 2.4181 10.019 10.068 5.8556 17.829 13.136 20.763 19.477 3.5218 7.6116 3.2167 56.556-0.393 63.054-2.4013 4.3223-2.5197 5.3689-3 26.5-0.286 12.586-0.8239 20.844-1.2568 19.299z"/>
</g>
<path id="path4883" fill="#f55" d="m534.44 2116.1c-25.525-4.6395-42.801-14.005-48.926-26.524l-2.6095-5.3335 0.15178-28.881c0.0835-15.884 0.49735-31.131 0.9197-33.881l0.7679-5 0.13362 5.0399c1.0207 38.5 43.979 60.765 102.27 53.005 59.065-7.8632 96.499-36.057 124.87-94.045 15.062-30.789 20.571-53.443 17.024-70-18.263-85.245-69.609-147.97-157.25-192.11-9.8317-4.9515-18.256-8.0513-30.777-11.325l-10.5-2.7451-0.62434-14.409c-0.34339-7.9248-0.67472-21.159-0.73631-29.409l-0.11197-15 17.844-8.8045c121.27-59.838 188.39-137.19 197.14-227.2l1.0694-11-3.5739-10.778c-19.352-58.36-45.591-88.056-123.82-140.13-40.887-27.219-49.176-33.186-83.408-60.052-43.158-33.871-42.343-31.859-39.296-97.041 1.9526-41.767 0.93774-40.156 103.67-164.58 95.103-115.18 130.56-177.72 141.41-249.44l1.2128-8.0164-6.1385-20.484c-18.53-61.77-31.69-81.87-126.61-193.36-45.85-53.84-72.24-94.15-114.27-174.5-43.37-82.9-62.83-166.86-59.12-255 1.08-25.667 0.62-24.002 6.6-23.992l4.7814 0.00798 0.21003 20.58c1.176 115.23 50.406 232.31 149.64 355.87 6.643 8.2711 26.287 32.588 43.654 54.038 106.79 131.9 101.89 123.59 105.47 179 0.88904 13.75 2.7003 40.3 4.025 59 3.9067 55.148 0.14722 81.599-18.192 128-23.5 59.457-58.659 110.58-148.14 215.42-34.068 39.914-60.145 71.622-68.248 82.986l-6.1282 8.5939 6.8521 6.3599c23.252 21.582 45.343 38.048 98.852 73.685 107.33 71.478 135.25 122.87 140.18 257.95 3.2511 89.049-47.29 167.94-145.12 226.51-8.3891 5.0227-8.7856 5.408-6.5 6.3171 63.81 25.38 114.65 90.294 132.1 168.68 7.804 35.053 0.76119 134.84-12.077 171.12-11.912 33.661-14.491 37.075-53.529 70.879-28.424 24.613-89.96 38.329-135.13 30.119z"/>
<path id="path4313" fill="#ff9c42" d="m2515.6 1975.1c-2.4387-5.4176-8.5582-10.844-17.57-15.579l-7.0077-3.6824-11.242 3.9292c-48.323 16.889-130.59 19.542-145.44 4.6908l-3.4-3.2v-22.445c0-24.738-0.2791-23.601 6.6563-27.112 27.497-13.92 99.169-15.491 141.72-3.1067 10.384 3.0226 11.723 2.7332 23.952-5.178l6.9975-4.5267-2.911-2.3559c-21.632-17.507-72.299-30.008-99.411-24.528-34.327 6.9379-74.354 9.1434-80.668 4.4449l-2.8316-2.1071-0.268-22.972c-0.3121-26.748-0.8255-25.375 10.372-27.731 18.289-3.8472 53.397-4.4844 77.396-1.4047 16.003 2.0537 18.756 1.7174 37.736-4.6098 28.04-9.3472 63.916-29.25 59.923-33.243-6.4904-6.4905-44.497-11.143-108.66-13.3-25.646-0.8624-58.424-3.0751-68.187-4.603-4.8045-0.7519-6.7715-9.0997-10.893-46.227-1.5274-13.76-4.6209-13.151 41.58-8.1922 87.739 9.4168 131.63 5.1137 153.64-15.063l5.3566-4.9098-9.7411-9.4885c-20.581-20.048-41.478-25.856-99.259-27.59-27.895-0.8371-57.312-2.4552-83.697-4.6038l-7.697-0.6267-1.037-4.835c-1.4508-6.7648-3.8129-26.421-4.6626-38.8l-0.7149-10.414 33.904 0.7046c18.647 0.3876 43.579 1.1206 55.404 1.6289 71.532 3.0751 97.564-0.8449 114.29-17.21 6.7664-6.6206 6.8568-5.831-2.0087-17.541-22.488-29.703-56.805-38.223-154.06-38.245l-43.275-0.01-0.8422-2.25c-2.3231-6.206-6.7411-52.517-5.1609-54.097 1.534-1.534 51.896-1.3236 78.553 0.3282 83.273 5.16 112.18-3.1356 128.88-36.981l4.6867-9.5-2.8863-8.5c-19.73-58.104-93.456-102.99-183.02-111.42-17.961-1.6914-18.926-3.874-19.472-44.069l-0.1904-13.994 11-2.2411c155.33-31.647 236.12-96.388 228.68-183.26-6.0116-70.191-25.071-125.6-85.658-249.01-75.456-153.7-95.447-220.2-98.152-326.5-2.4449-96.078 10.944-155.71 66.122-294.5 35.485-89.256 47.697-126.69 56.43-173l2.7347-14.5 8.674-0.28893 8.6739-0.28893v5.7951c0.1 46.284-18.9 109.42-63.9 212.98-46.223 106.43-63.174 157.71-72.55 219.5-10.334 68.099 11.539 150.03 71.815 269 55.736 110.01 63.042 125.26 76.419 159.5 36.994 94.688 46.037 188.24 25.8 266.9-15.443 60.029-45.824 94.893-111.27 127.7l-15.243 7.6394 13.243 6.5357c41.897 20.677 70.273 49.821 81.038 83.232 12.204 37.878 5.7753 117.94-11.153 138.89-3.8445 4.7571-3.9101 3.9165 0.7392 9.4737 22.782 27.231 26.956 102.89 6.9351 125.7-2.6537 3.0225-2.9851 3.908-1.9782 5.2869 13.561 18.571 18.602 81.692 8.1603 102.16-1.8854 3.6955-1.9258 4.2353-0.5211 6.9518 1.8168 3.5132 2.1585 39.874 0.4836 51.462-2.0131 13.928-12.962 28.958-28.577 39.229l-6.1166 4.0233 7.5473 4.4152c9.8109 5.7393 17.572 13.333 20.773 20.325l2.5307 5.5277-0.309 27.281c-0.2845 25.122-0.4673 27.558-2.309 30.781-1.7878 3.1287-2.053 5.8845-2.5 25.975l-0.5 22.475-1.9383-4.306z"/>
</g>
</svg>
